<?xml version="1.0" encoding="utf-8"?>
<!-- Generator: Adobe Illustrator 22.0.0, SVG Export Plug-In . SVG Version: 6.00 Build 0)  -->
<svg version="1.1" id="Layer_1" xmlns="http://www.w3.org/2000/svg" xmlns:xlink="http://www.w3.org/1999/xlink" x="0px" y="0px"
	 viewBox="0 0 373.9 411.8" style="enable-background:new 0 0 373.9 411.8;" xml:space="preserve">
<style type="text/css">
	.st0{opacity:0.1;}
	.st1{fill:#EEEEEE;}
	.st2{fill:#FFFF00;}
	.st3{fill:#0000FF;}
	.st4{fill:#90EE90;}
	.st5{fill:#060742;}
	.st6{fill:#FF0000;}
	.st7{opacity:0.6;}
	.st8{fill:#D6D7DD;}
</style>
<g id="Layer_1_1_">
	<g>
		<g class="st0">
			<path d="M312.2,92.6c-5.7-12.1-16.3-20.8-35.1-28.3c-18.8-7.5-49.7-16.7-49.7-16.7l-38.9,10.2l-39.6-10.2c0,0-31.3,9.3-50.1,16.7
				C80,71.8,69.2,80.6,63.5,92.6c-5.7,12.1-17.9,74.1-17.9,74.1s10.5,8.3,48.5,14.2l9.2-19.8c0,0,4.8,12.7,4.4,26.4s1.8,47,1.8,76.9
				c0,29.9-3.6,75.3-2.3,96.5c0,0,9.2,9.2,81.2,9.2S269,361,269,361c1.3-21.2-3-66.5-3-96.5c0-29.9,2.2-63.2,1.8-76.9
				c-0.4-13.7,4.4-26.4,4.4-26.4l9.2,19.8c38-5.8,48.6-14.2,48.6-14.2S317.9,104.7,312.2,92.6z"/>
			<path d="M107,353.9c0,2.6,0.1,4.9,0.3,7.1c0,0,9.2,9.2,81.2,9.2S269,361,269,361c0.1-2.1,0.2-4.5,0.2-7.1c0,0-22.2,8.1-80.3,8.1
				S107,353.9,107,353.9z"/>
			<path d="M47.4,158.2c-1.1,5.2-1.7,8.5-1.7,8.5s10.5,8.3,48.5,14.2l3.2-6.8C82.4,172.1,58.2,165.1,47.4,158.2z"/>
			<path d="M328.3,158.2c1.1,5.2,1.7,8.5,1.7,8.5s-10.5,8.3-48.5,14.2l-3.2-6.8C293.3,172.1,317.5,165.1,328.3,158.2z"/>
			<path d="M209.6,31c-7,1.1-16.5,2.9-21.9,2.9c-5.3,0-14.8-1.8-21.9-2.9c-7.6-1.2-8.7-1.1-10.1,0.1l-2.3,3.9l4.1,21.1l30.3,5.8
				l30.3-5.8l3.6-21.2l-1.9-3.8C218.3,29.9,217.1,29.8,209.6,31z"/>
			<rect x="179.7" y="61.5" width="16.3" height="61.9"/>
			<path d="M187.8,61.5c0,0,37.1-18.4,31.9-30.6c0,0,1.7,1.3,4.3,6.2c2.6,5,10.3,12.5,10.3,12.5s-9.3,15.2-28.4,24.2
				C205.9,73.8,201.1,67.2,187.8,61.5z"/>
			<path d="M187.8,61.5c0,0-37.5-18.6-31.9-30.6c0,0-1.7,1.3-4.3,6.2c-2.6,5-10.3,12.5-10.3,12.5s10.2,15.2,29.3,24.2
				C170.6,73.8,179.1,63.6,187.8,61.5z"/>
			<path d="M190.7,103.8c0,1.5-1.3,2.8-2.9,2.8c-1.6,0-2.9-1.2-2.9-2.8c0-1.5,1.3-2.8,2.9-2.8C189.4,101.1,190.7,102.3,190.7,103.8z
				"/>
			<ellipse cx="186.8" cy="103.8" rx="0.6" ry="0.5"/>
			<path d="M189.5,103.8c0,0.3-0.2,0.5-0.6,0.5s-0.6-0.2-0.6-0.5s0.2-0.5,0.6-0.5S189.5,103.5,189.5,103.8z"/>
			<path d="M190.7,84.9c0,1.5-1.3,2.8-2.9,2.8c-1.6,0-2.9-1.2-2.9-2.8s1.3-2.8,2.9-2.8S190.7,83.3,190.7,84.9z"/>
			<path d="M187.4,84.9c0,0.3-0.2,0.5-0.6,0.5c-0.3,0-0.6-0.2-0.6-0.5s0.2-0.5,0.6-0.5C187.1,84.3,187.4,84.6,187.4,84.9z"/>
			<path d="M189.5,84.9c0,0.3-0.2,0.5-0.6,0.5s-0.6-0.2-0.6-0.5s0.2-0.5,0.6-0.5S189.5,84.6,189.5,84.9z"/>
			<path d="M103.4,161.1c-0.7-3.7-1.6-7.3-2.5-10.9c-0.9-3.6-1.9-7.2-3-10.8c-2.2-7.1-4.8-14.1-8-20.8c-3.2-6.8-6.1-13.7-8.5-20.8
				c-1.2-3.5-2.3-7.1-3.1-10.8c-0.4-1.8-0.7-3.7-0.9-5.6c-0.2-1.9-0.2-3.8,0.2-5.6c-0.5,3.7,0.3,7.4,1.2,11
				c0.9,3.6,2.1,7.2,3.4,10.7c2.6,7,5.5,13.9,8.7,20.6c3.2,6.8,5.8,13.8,7.9,21C100.7,146.4,102.4,153.7,103.4,161.1z"/>
			<path d="M271.8,161.1c1.1-7.4,2.8-14.7,4.8-21.9c2.1-7.2,4.7-14.2,7.9-21c3.2-6.7,6.1-13.6,8.7-20.6c1.3-3.5,2.4-7,3.4-10.7
				c0.9-3.6,1.7-7.3,1.2-11c0.4,1.8,0.3,3.7,0.2,5.6c-0.2,1.9-0.5,3.7-0.9,5.6c-0.8,3.7-1.9,7.3-3.1,10.8c-2.4,7.1-5.4,14-8.5,20.8
				c-3.2,6.7-5.8,13.7-8,20.8c-1.1,3.6-2.1,7.1-3,10.8C273.4,153.8,272.6,157.4,271.8,161.1z"/>
		</g>
		<g>
			<g>
				<path class="st1" d="M310.2,92.6c-5.7-12.1-16.3-20.8-35.1-28.3c-18.8-7.5-49.7-16.7-49.7-16.7l-38.9,10.2l-39.6-10.2
					c0,0-31.3,9.3-50.1,16.7C78,71.8,67.2,80.6,61.5,92.6c-5.7,12.1-17.9,74.1-17.9,74.1s10.5,8.3,48.5,14.2l9.2-19.8
					c0,0,4.8,12.7,4.4,26.4s1.8,47,1.8,76.9c0,29.9-3.6,75.3-2.3,96.5c0,0,9.2,9.2,81.2,9.2S267,361,267,361c1.3-21.2-3-66.5-3-96.5
					c0-29.9,2.2-63.2,1.8-76.9c-0.4-13.7,4.4-26.4,4.4-26.4l9.2,19.8c38-5.8,48.6-14.2,48.6-14.2S315.9,104.7,310.2,92.6z"/>
				<path class="st1" d="M105,353.9c0,2.6,0.1,4.9,0.3,7.1c0,0,9.2,9.2,81.2,9.2S267,361,267,361c0.1-2.1,0.2-4.5,0.2-7.1
					c0,0-22.2,8.1-80.3,8.1S105,353.9,105,353.9z"/>
				<path class="st2" d="M45.4,158.2c-1.1,5.2-1.7,8.5-1.7,8.5s10.5,8.3,48.5,14.2l3.2-6.8C80.4,172.1,56.2,165.1,45.4,158.2z"/>
				<path class="st2" d="M326.3,158.2c1.1,5.2,1.7,8.5,1.7,8.5s-10.5,8.3-48.5,14.2l-3.2-6.8C291.3,172.1,315.5,165.1,326.3,158.2z"
					/>
				<path class="st3" d="M207.6,31c-7,1.1-16.5,2.9-21.9,2.9c-5.3,0-14.8-1.8-21.9-2.9c-7.6-1.2-8.7-1.1-10.1,0.1l-2.3,3.9l4.1,21.1
					l30.3,5.8l30.3-5.8l3.6-21.2l-1.9-3.8C216.3,29.9,215.1,29.8,207.6,31z"/>
				<rect x="177.7" y="61.5" class="st4" width="16.3" height="61.9"/>
				<path class="st5" d="M185.8,61.5c0,0,37.1-18.4,31.9-30.6c0,0,1.7,1.3,4.3,6.2c2.6,5,10.3,12.5,10.3,12.5s-9.3,15.2-28.4,24.2
					C203.9,73.8,199.1,67.2,185.8,61.5z"/>
				<path class="st5" d="M185.8,61.5c0,0-37.5-18.6-31.9-30.6c0,0-1.7,1.3-4.3,6.2c-2.6,5-10.3,12.5-10.3,12.5s10.2,15.2,29.3,24.2
					C168.6,73.8,177.1,63.6,185.8,61.5z"/>
				<g>
					<g>
						<g>
							<path class="st6" d="M188.7,103.8c0,1.5-1.3,2.8-2.9,2.8c-1.6,0-2.9-1.2-2.9-2.8c0-1.5,1.3-2.8,2.9-2.8
								C187.4,101.1,188.7,102.3,188.7,103.8z"/>
						</g>
						<ellipse class="st4" cx="184.8" cy="103.8" rx="0.6" ry="0.5"/>
						<path class="st4" d="M187.5,103.8c0,0.3-0.2,0.5-0.6,0.5s-0.6-0.2-0.6-0.5s0.2-0.5,0.6-0.5S187.5,103.5,187.5,103.8z"/>
					</g>
					<g>
						<g>
							<path class="st6" d="M188.7,84.9c0,1.5-1.3,2.8-2.9,2.8c-1.6,0-2.9-1.2-2.9-2.8s1.3-2.8,2.9-2.8S188.7,83.3,188.7,84.9z"/>
						</g>
						<path class="st4" d="M185.4,84.9c0,0.3-0.2,0.5-0.6,0.5c-0.3,0-0.6-0.2-0.6-0.5s0.2-0.5,0.6-0.5
							C185.1,84.3,185.4,84.6,185.4,84.9z"/>
						<path class="st4" d="M187.5,84.9c0,0.3-0.2,0.5-0.6,0.5s-0.6-0.2-0.6-0.5s0.2-0.5,0.6-0.5S187.5,84.6,187.5,84.9z"/>
					</g>
				</g>
				<g class="st7">
					<path class="st8" d="M101.4,161.1c-0.7-3.7-1.6-7.3-2.5-10.9c-0.9-3.6-1.9-7.2-3-10.8c-2.2-7.1-4.8-14.1-8-20.8
						c-3.2-6.8-6.1-13.7-8.5-20.8c-1.2-3.5-2.3-7.1-3.1-10.8c-0.4-1.8-0.7-3.7-0.9-5.6c-0.2-1.9-0.2-3.8,0.2-5.6
						c-0.5,3.7,0.3,7.4,1.2,11c0.9,3.6,2.1,7.2,3.4,10.7c2.6,7,5.5,13.9,8.7,20.6c3.2,6.8,5.8,13.8,7.9,21
						C98.7,146.4,100.4,153.7,101.4,161.1z"/>
				</g>
				<g class="st7">
					<path class="st8" d="M269.8,161.1c1.1-7.4,2.8-14.7,4.8-21.9c2.1-7.2,4.7-14.2,7.9-21c3.2-6.7,6.1-13.6,8.7-20.6
						c1.3-3.5,2.4-7,3.4-10.7c0.9-3.6,1.7-7.3,1.2-11c0.4,1.8,0.3,3.7,0.2,5.6c-0.2,1.9-0.5,3.7-0.9,5.6c-0.8,3.7-1.9,7.3-3.1,10.8
						c-2.4,7.1-5.4,14-8.5,20.8c-3.2,6.7-5.8,13.7-8,20.8c-1.1,3.6-2.1,7.1-3,10.8C271.4,153.8,270.6,157.4,269.8,161.1z"/>
				</g>
			</g>
		</g>
	</g>
</g>
</svg>
